<?xml version="1.0" encoding="utf-8"?>
<!-- Generator: Adobe Illustrator 25.2.0, SVG Export Plug-In . SVG Version: 6.00 Build 0)  -->
<svg version="1.1" id="Layer_1" xmlns="http://www.w3.org/2000/svg" xmlns:xlink="http://www.w3.org/1999/xlink" x="0px" y="0px"
	 viewBox="0 0 72 72" style="enable-background:new 0 0 72 72;" xml:space="preserve">
<style type="text/css">
	.st0{fill:#FFFFFF;}
</style>
<g>
	<path d="M59.39,72H12.61C5.64,72,0,66.36,0,59.39V12.61C0,5.64,5.64,0,12.61,0h46.79C66.36,0,72,5.64,72,12.61v46.79
		C72,66.36,66.36,72,59.39,72z"/>
</g>
<g>
	<g>
		<polygon class="st0" points="62.8,9.13 67.83,9.06 68,40.64 62.98,40.71 		"/>
		<polygon class="st0" points="52.19,9.16 56.21,9.14 56.27,40.72 52.25,40.74 		"/>
		<polygon class="st0" points="47.05,9.19 50.06,9.17 50.12,40.75 47.11,40.76 		"/>
		<polygon class="st0" points="28.62,9.27 30.63,9.26 30.69,40.84 28.68,40.85 		"/>
		<polygon class="st0" points="16.33,9.21 17.33,9.2 17.39,40.78 16.39,40.79 		"/>
		<polygon class="st0" points="4,9.27 4.05,9.27 4.11,40.85 4.06,40.85 		"/>
		<polygon class="st0" points="57.63,9.14 62.15,9.11 62.21,40.69 57.69,40.71 		"/>
		<polygon class="st0" points="40.7,9.22 44.21,9.2 44.27,40.78 40.75,40.79 		"/>
		<polygon class="st0" points="34.64,9.24 37.15,9.23 37.21,40.81 34.7,40.82 		"/>
		<polygon class="st0" points="22.2,9.3 23.71,9.3 23.77,40.87 22.26,40.88 		"/>
		<polygon class="st0" points="10.41,9.24 10.66,9.24 10.72,40.81 10.46,40.81 		"/>
	</g>
	<g>
		<polygon class="st0" points="9.24,63.48 4.23,63.55 4.09,41.58 9.1,41.51 		"/>
		<polygon class="st0" points="19.88,63.31 15.87,63.37 15.73,41.4 19.74,41.34 		"/>
		<polygon class="st0" points="25,63.23 22,63.28 21.86,41.31 24.87,41.26 		"/>
		<polygon class="st0" points="43.38,62.94 41.37,62.97 41.24,41 43.25,40.97 		"/>
		<polygon class="st0" points="55.64,62.84 54.64,62.85 54.5,40.88 55.51,40.87 		"/>
		<polygon class="st0" points="67.93,62.65 67.88,62.65 67.75,40.68 67.8,40.68 		"/>
		<polygon class="st0" points="14.45,63.39 9.94,63.47 9.81,41.49 14.32,41.42 		"/>
		<polygon class="st0" points="31.34,63.13 27.83,63.19 27.7,41.22 31.21,41.16 		"/>
		<polygon class="st0" points="37.38,63.04 34.87,63.08 34.74,41.11 37.25,41.07 		"/>
		<polygon class="st0" points="49.78,62.84 48.28,62.87 48.14,40.9 49.65,40.87 		"/>
		<polygon class="st0" points="61.55,62.75 61.29,62.75 61.16,40.78 61.41,40.77 		"/>
	</g>
</g>
</svg>
